<?xml version="1.0" encoding="utf-8"?>
<!-- Generator: Adobe Illustrator 27.2.0, SVG Export Plug-In . SVG Version: 6.00 Build 0)  -->
<svg version="1.1" id="Layer_1" xmlns="http://www.w3.org/2000/svg" xmlns:xlink="http://www.w3.org/1999/xlink" x="0px" y="0px"
	 viewBox="0 0 1176.3 1146.3" style="enable-background:new 0 0 1176.3 1146.3;" xml:space="preserve">
<style type="text/css">
	.st0{fill:#0055FF;}
	.st1{fill:#000D26;}
</style>
<g>
	<path class="st0" d="M588.2,163.5c-163.5,0-296,132.5-296,296c0,151,113.1,275.6,259.2,293.7V615.4c0-44.7-21-86.5-55.9-114.8
		c-33.5-27-55.3-68.7-55.3-115.1c0-81.9,66.1-148,148-148s148,66.1,148,148c0,46.7-21.4,88.1-55.3,115.1
		C646,528.9,625,570.3,625,615.4v137.8c146-18.1,259.2-142.7,259.2-293.7C884.2,296,751.6,163.5,588.2,163.5"/>
	<polygon class="st1" points="505.6,980.7 525.5,980.7 525.5,932.2 580,932.2 580,914 525.5,914 525.5,883.1 589.9,883.1 
		589.9,864.9 505.6,864.9 	"/>
	<rect x="634.6" y="864.9" class="st1" width="19.8" height="115.7"/>
	<path class="st1" d="M783.3,933.5c0,10.4-2.5,16.5-6.8,21.2c-5.3,5.8-14,9.4-23,9.4c-8.9,0-16.9-3.6-22.2-9.4
		c-4.3-4.6-7.6-10.7-7.6-21.2v-68.6h-19.8v67.4c0,15.4,5,25.8,12.2,33.7c8.9,10.1,22.5,16.2,37.4,16.2s28.4-6,37.4-16
		c7.1-8.1,12.2-18.5,12.2-33.9v-67.4h-19.8V933.5z"/>
	<path class="st1" d="M442.7,925.3c8.1-6.1,13.4-15.5,13.4-26.8s-5.3-20.8-13.4-26.9c-5.6-4.1-12.6-6.6-23.5-6.6h-52.4v115.7h19.8
		v-48.8h14.9h3.4l0,0l33.4,48.8H461l-33.8-49.3C433.7,930.4,438.6,928.3,442.7,925.3z M386.6,914v-31.2h30.6
		c7.3,0,10.7,1.3,13.4,3.6c3.5,2.8,5.6,7.1,5.6,12.1s-2.1,9.1-5.6,11.9c-2.6,2.3-6.1,3.6-13.4,3.6H386.6z"/>
	<path class="st1" d="M265.5,862.8c-32.7,0-59.2,26.9-59.2,60c0,33.1,26.5,60,59.2,60s59.2-26.9,59.2-60
		C324.7,889.7,298.1,862.8,265.5,862.8z M265.5,963.3c-21.7,0-39.3-18.1-39.3-40.5c0-22.4,17.6-40.5,39.3-40.5
		c21.7,0,39.3,18.1,39.3,40.5C304.8,945.2,287.2,963.3,265.5,963.3z"/>
	<polygon class="st1" points="953.6,864.9 911.8,926.9 869.3,864.9 852.8,864.9 852.8,980.7 872.1,980.7 872.1,902.1 907.3,953.2 
		916.2,953.2 950.8,902 950.8,980.7 970.1,980.7 970.1,864.9 	"/>
</g>
</svg>
