<?xml version="1.0" encoding="utf-8"?>
<!-- Generator: Adobe Illustrator 27.2.0, SVG Export Plug-In . SVG Version: 6.00 Build 0)  -->
<svg version="1.1" id="Layer_1" xmlns="http://www.w3.org/2000/svg" xmlns:xlink="http://www.w3.org/1999/xlink" x="0px" y="0px"
	 viewBox="0 0 1170.8 558.7" style="enable-background:new 0 0 1170.8 558.7;" xml:space="preserve">
<style type="text/css">
	.st0{fill:#0055FF;}
	.st1{fill:#000D26;}
</style>
<g>
	<path class="st0" d="M585.4,84.4c-56.3,0-101.9,45.6-101.9,101.9c0,52,38.9,94.8,89.2,101.1v-47.5c0-15.4-7.3-29.8-19.2-39.5
		c-11.6-9.3-19-23.6-19-39.7c0-28.1,22.8-51,51-51c28.1,0,51,22.8,51,51c0,16-7.4,30.3-19,39.7c-12,9.7-19.2,24-19.2,39.5v47.5
		c50.3-6.3,89.2-49.1,89.2-101.1C687.3,130,641.7,84.4,585.4,84.4"/>
	<polygon class="st1" points="502.8,472.2 522.6,472.2 522.6,423.8 577.2,423.8 577.2,405.6 522.6,405.6 522.6,374.7 587.1,374.7 
		587.1,356.5 502.8,356.5 	"/>
	<rect x="631.7" y="356.5" class="st1" width="19.8" height="115.7"/>
	<path class="st1" d="M780.5,425.1c0,10.4-2.5,16.5-6.8,21.2c-5.3,5.8-14,9.4-23,9.4c-8.9,0-16.9-3.6-22.2-9.4
		c-4.3-4.6-7.6-10.7-7.6-21.2v-68.6h-19.8V424c0,15.4,5,25.8,12.2,33.7c8.9,10.1,22.5,16.2,37.4,16.2c14.9,0,28.4-6,37.4-16
		c7.1-8.1,12.2-18.5,12.2-33.9v-67.4h-19.8V425.1z"/>
	<path class="st1" d="M439.8,416.8c8.1-6.1,13.4-15.5,13.4-26.8c0-11.2-5.3-20.8-13.4-26.9c-5.6-4.1-12.6-6.6-23.5-6.6h-52.4v115.7
		h19.8v-48.8h14.9l3.4,0l0,0l33.4,48.8h22.7l-33.8-49.3C430.9,422,435.7,419.9,439.8,416.8z M383.8,405.6v-31.2h30.6
		c7.3,0,10.7,1.3,13.4,3.6c3.5,2.8,5.6,7.1,5.6,12.1c0,5-2.1,9.1-5.6,11.9c-2.6,2.3-6.1,3.6-13.4,3.6H383.8z"/>
	<path class="st1" d="M262.6,354.4c-32.7,0-59.2,26.9-59.2,60s26.5,60,59.2,60s59.2-26.9,59.2-60S295.3,354.4,262.6,354.4z
		 M262.6,454.9c-21.7,0-39.3-18.1-39.3-40.5c0-22.4,17.6-40.5,39.3-40.5S302,392,302,414.4C302,436.7,284.4,454.9,262.6,454.9z"/>
	<polygon class="st1" points="950.8,356.5 909,418.5 866.5,356.5 849.9,356.5 849.9,472.2 869.3,472.2 869.3,393.7 904.4,444.8 
		913.4,444.8 948,393.6 948,472.2 967.3,472.2 967.3,356.5 	"/>
</g>
</svg>
