<?xml version="1.0" encoding="utf-8"?>
<!-- Generator: Adobe Illustrator 27.2.0, SVG Export Plug-In . SVG Version: 6.00 Build 0)  -->
<svg version="1.1" id="Layer_1" xmlns="http://www.w3.org/2000/svg" xmlns:xlink="http://www.w3.org/1999/xlink" x="0px" y="0px"
	 viewBox="0 0 1114.9 350.9" style="enable-background:new 0 0 1114.9 350.9;" xml:space="preserve">
<style type="text/css">
	.st0{fill:#0055FF;}
	.st1{fill:#000D26;}
</style>
<g>
	<path class="st0" d="M172.3,87.6c-48.8,0-88.4,39.6-88.4,88.4c0,45.1,33.8,82.3,77.4,87.6v-41.1c0-13.3-6.3-25.8-16.7-34.3
		c-10.1-8-16.5-20.4-16.5-34.3c0-24.5,19.7-44.2,44.2-44.2c24.4,0,44.2,19.7,44.2,44.2c0,13.9-6.4,26.3-16.5,34.3
		c-10.4,8.4-16.7,20.8-16.7,34.3v41.1c43.6-5.4,77.4-42.6,77.4-87.6C260.6,127.2,221,87.6,172.3,87.6z"/>
	<path class="st1" d="M588.7,233.4h18.9v-46.1h51.9v-17.4h-51.9v-29.4H669v-17.3h-80.3V233.4z"/>
	<path class="st1" d="M730.4,123.2h-18.9v110.2h18.9V123.2z"/>
	<path class="st1" d="M853.1,188.5c0,9.9-2.4,15.7-6.5,20.2c-5,5.5-13.3,8.9-21.9,8.9c-8.6,0-16.1-3.4-21.1-8.9
		c-4.1-4.4-7.3-10.2-7.3-20.2v-65.3h-18.8v64.2c0,14.7,4.7,24.6,11.6,32.1c8.5,9.6,21.4,15.4,35.6,15.4c14.2,0,27.1-5.7,35.6-15.2
		c6.8-7.7,11.6-17.6,11.6-32.3v-64.2h-18.8V188.5z"/>
	<path class="st1" d="M528.8,180.6c7.7-5.8,12.8-14.7,12.8-25.5s-5-19.8-12.8-25.6c-5.3-3.9-12-6.3-22.4-6.3h-49.9v110.2h18.8v-46.5
		h17.4l31.8,46.5h21.6l-32.2-46.9C520.2,185.6,524.9,183.5,528.8,180.6L528.8,180.6z M475.4,169.9v-29.8h29.2c7,0,10.2,1.2,12.8,3.4
		c3.4,2.7,5.3,6.8,5.3,11.5c0,4.8-2,8.7-5.3,11.3c-2.5,2.2-5.8,3.4-12.8,3.4h-29.2V169.9z"/>
	<path class="st1" d="M360.1,121.2c-31.1,0-56.4,25.6-56.4,57.1c0,31.5,25.2,57.1,56.4,57.1c31.2,0,56.4-25.6,56.4-57.1
		C416.5,146.8,391.2,121.2,360.1,121.2z M360.1,216.9c-20.7,0-37.4-17.2-37.4-38.6c0-21.4,16.8-38.6,37.4-38.6
		c20.6,0,37.4,17.2,37.4,38.6C397.5,199.7,380.7,216.9,360.1,216.9z"/>
	<path class="st1" d="M1015.3,123.2l-39.8,59l-40.5-59h-15.7v110.2h18.4v-74.7l33.5,48.5h8.5l32.9-48.7v74.9h18.4V123.2H1015.3z"/>
</g>
</svg>
